# xmcd
#
# Track frame offsets:
#	150
#	15515
#	31889
#	51638
#	68759
#	86130
#	104642
#	120604
#	138671
#	154748
#	173398
#	193994
#	215468
#	236835
#	254655
#	273341
#	289711
#	307065
#	323172
#	339423
#
# Disc length: 4768 seconds
#
# Revision: 2
# Processed by: cddbd v1.5.2PL0 Copyright (c) Steve Scherf et al.
# Submitted via: EasyCDDAExtractor 15.3.0.1
#
DISCID=32129e14
DTITLE=Ednita Nazario - Personalidad
DYEAR=2015
DGENRE=Latin
TTITLE0=Devuelveme
TTITLE1=No Te Mentia
TTITLE2=Tu, Sin Mi (Version Acustica)
TTITLE3=Sin Querer
TTITLE4=No
TTITLE5=Confesados
TTITLE6=A Que Pides Mas
TTITLE7=Voy
TTITLE8=La Mas Fuerte
TTITLE9=Alguien Mas
TTITLE10=Mas Mala Que Tu
TTITLE11=Cuando No Te Queden Lagrimas
TTITLE12=Vengada
TTITLE13=A Que No Te Vas
TTITLE14=Si No Me Amas
TTITLE15=La Fuerza De Un Te Quiero
TTITLE16=Para El Peor Amante
TTITLE17=La Pasion Tiene Memoria
TTITLE18=Todavia
TTITLE19=El Privilegio De Dar
EXTD=
EXTT0=
EXTT1=
EXTT2=
EXTT3=
EXTT4=
EXTT5=
EXTT6=
EXTT7=
EXTT8=
EXTT9=
EXTT10=
EXTT11=
EXTT12=
EXTT13=
EXTT14=
EXTT15=
EXTT16=
EXTT17=
EXTT18=
EXTT19=
PLAYORDER=
